<?xml version="1.0" encoding="UTF-8" standalone="no"?>
<!-- Created with Inkscape (http://www.inkscape.org/) -->

<svg
   xmlns:dc="http://purl.org/dc/elements/1.1/"
   xmlns:cc="http://creativecommons.org/ns#"
   xmlns:rdf="http://www.w3.org/1999/02/22-rdf-syntax-ns#"
   xmlns:svg="http://www.w3.org/2000/svg"
   xmlns="http://www.w3.org/2000/svg"
   xmlns:xlink="http://www.w3.org/1999/xlink"
   xmlns:sodipodi="http://sodipodi.sourceforge.net/DTD/sodipodi-0.dtd"
   xmlns:inkscape="http://www.inkscape.org/namespaces/inkscape"
   width="600"
   height="600"
   id="svg2"
   version="1.1"
   inkscape:version="0.48.3.1 r9886"
   sodipodi:docname="icons.svg">
  <defs
     id="defs4">
    <linearGradient
       inkscape:collect="always"
       id="linearGradient3757">
      <stop
         style="stop-color:#ececec;stop-opacity:1"
         offset="0"
         id="stop3759" />
      <stop
         style="stop-color:#cccccc;stop-opacity:1"
         offset="1"
         id="stop3761" />
    </linearGradient>
    <linearGradient
       inkscape:collect="always"
       xlink:href="#linearGradient3757"
       id="linearGradient3763"
       x1="10"
       y1="0"
       x2="10"
       y2="20"
       gradientUnits="userSpaceOnUse" />
  </defs>
  <sodipodi:namedview
     id="base"
     pagecolor="#ffffff"
     bordercolor="#666666"
     borderopacity="1.0"
     inkscape:pageopacity="0.0"
     inkscape:pageshadow="2"
     inkscape:zoom="4.2190705"
     inkscape:cx="113.31111"
     inkscape:cy="659.29592"
     inkscape:document-units="px"
     inkscape:current-layer="layer1"
     showgrid="true"
     gridtolerance="10"
     inkscape:window-width="1920"
     inkscape:window-height="1121"
     inkscape:window-x="-2"
     inkscape:window-y="-3"
     inkscape:window-maximized="1">
    <inkscape:grid
       type="xygrid"
       id="grid3753"
       empspacing="6"
       visible="true"
       enabled="true"
       snapvisiblegridlinesonly="true"
       spacingx="5px"
       spacingy="5px" />
  </sodipodi:namedview>
  <metadata
     id="metadata7">
    <rdf:RDF>
      <cc:Work
         rdf:about="">
        <dc:format>image/svg+xml</dc:format>
        <dc:type
           rdf:resource="http://purl.org/dc/dcmitype/StillImage" />
        <dc:title></dc:title>
      </cc:Work>
    </rdf:RDF>
  </metadata>
  <g
     inkscape:label="background"
     inkscape:groupmode="layer"
     id="layer1"
     transform="translate(0,-452.36218)">
    <use
       height="600"
       width="600"
       transform="translate(240,0)"
       id="use3799"
       xlink:href="#rect3755"
       y="0"
       x="0" />
    <use
       x="0"
       y="0"
       xlink:href="#rect3755"
       id="use3801"
       transform="translate(270,0)"
       width="600"
       height="600" />
    <use
       height="600"
       width="600"
       transform="translate(240,0)"
       id="use3822"
       xlink:href="#path3804"
       y="0"
       x="0" />
    <use
       x="0"
       y="0"
       xlink:href="#path3804"
       id="use3824"
       transform="translate(270,0)"
       width="600"
       height="600" />
    <g
       id="parab-up-0"
       inkscape:label="#g4048"
       inkscape:export-xdpi="90"
       inkscape:export-ydpi="90"
       transform="translate(20,0)">
      <use
         x="0"
         y="0"
         xlink:href="#rect3755"
         id="use3787"
         transform="translate(40,0)"
         width="600"
         height="600" />
      <use
         x="0"
         y="0"
         xlink:href="#path3804"
         id="use3810"
         transform="translate(40,4.91061)"
         width="600"
         height="600" />
      <path
         sodipodi:nodetypes="czc"
         inkscape:connector-curvature="0"
         id="path3830"
         d="m 46.571864,454.28397 c 0,0 2.601998,10 8.428136,10 5.826138,0 8.428136,-10 8.428136,-10"
         style="fill:none;stroke:#000000;stroke-width:1;stroke-linecap:round;stroke-linejoin:miter;stroke-opacity:1" />
      <path
         style="font-size:medium;font-style:normal;font-variant:normal;font-weight:normal;font-stretch:normal;text-indent:0;text-align:start;text-decoration:none;line-height:normal;letter-spacing:normal;word-spacing:normal;text-transform:none;direction:ltr;block-progression:tb;writing-mode:lr-tb;text-anchor:start;baseline-shift:baseline;color:#000000;fill:#d40000;fill-opacity:1;stroke:none;stroke-width:1.5;marker:none;visibility:visible;display:inline;overflow:visible;enable-background:accumulate;font-family:Sans;-inkscape-font-specification:Sans"
         d="m 54.947614,454.90667 a 0.57698069,0.57698069 0 0 0 -0.120193,0.024 0.57698069,0.57698069 0 0 0 -0.45673,0.57692 l 0,1.34615 -1.346155,0 a 0.57698069,0.57698069 0 0 0 -0.120192,0 0.58004654,0.58004654 0 1 0 0.120192,1.15385 l 1.346155,0 0,1.34615 a 0.57698069,0.57698069 0 1 0 1.153845,0 l 0,-1.34615 1.346154,0 a 0.57698069,0.57698069 0 1 0 0,-1.15385 l -1.346154,0 0,-1.34615 a 0.57698069,0.57698069 0 0 0 -0.576922,-0.60096 z"
         id="path3894"
         inkscape:connector-curvature="0" />
    </g>
    <g
       id="linear-desc"
       inkscape:label="#g4034"
       inkscape:export-xdpi="90"
       inkscape:export-ydpi="90">
      <path
         transform="translate(0,452.36218)"
         style="fill:url(#linearGradient3763);fill-opacity:1;stroke:none"
         d="M 2.178771,0 27.821229,0 C 29.028268,0 30,0.97173187 30,2.178771 l 0,15.642458 C 30,19.028268 29.028268,20 27.821229,20 L 2.178771,20 C 0.97173187,20 0,19.028268 0,17.821229 L 0,2.178771 C 0,0.97173187 0.97173187,0 2.178771,0 z"
         id="rect3755"
         inkscape:connector-curvature="0"
         sodipodi:nodetypes="sssssssss" />
      <path
         inkscape:connector-curvature="0"
         id="path3804"
         d="m 1.0614525,462.36218 27.7932965,0"
         style="fill:none;stroke:#000000;stroke-width:1px;stroke-linecap:square;stroke-linejoin:miter;stroke-opacity:1"
         sodipodi:nodetypes="cc" />
      <path
         inkscape:connector-curvature="0"
         id="path3826"
         d="M 6.5718639,453.93404 23.428136,470.79032"
         style="fill:none;stroke:#000000;stroke-width:1;stroke-linecap:round;stroke-linejoin:miter;stroke-opacity:1" />
      <path
         style="font-size:medium;font-style:normal;font-variant:normal;font-weight:normal;font-stretch:normal;text-indent:0;text-align:start;text-decoration:none;line-height:normal;letter-spacing:normal;word-spacing:normal;text-transform:none;direction:ltr;block-progression:tb;writing-mode:lr-tb;text-anchor:start;baseline-shift:baseline;color:#000000;fill:#d40000;fill-opacity:1;stroke:none;stroke-width:1.5;marker:none;visibility:visible;display:inline;overflow:visible;enable-background:accumulate;font-family:Sans;-inkscape-font-specification:Sans"
         d="m 5.0146495,454.99047 a 0.57698069,0.57698069 0 0 0 -0.120193,0.024 0.57698069,0.57698069 0 0 0 -0.45673,0.57692 l 0,1.34615 -1.346155,0 a 0.57698069,0.57698069 0 0 0 -0.1201919,0 0.58004653,0.58004653 0 0 0 0.1201919,1.15385 l 1.346155,0 0,1.34615 a 0.57698069,0.57698069 0 1 0 1.153845,0 l 0,-1.34615 1.346154,0 a 0.57698069,0.57698069 0 1 0 0,-1.15385 l -1.346154,0 0,-1.34615 a 0.57698069,0.57698069 0 0 0 -0.576922,-0.60096 z"
         id="path3890"
         inkscape:connector-curvature="0" />
      <path
         style="font-size:medium;font-style:normal;font-variant:normal;font-weight:normal;font-stretch:normal;text-indent:0;text-align:start;text-decoration:none;line-height:normal;letter-spacing:normal;word-spacing:normal;text-transform:none;direction:ltr;block-progression:tb;writing-mode:lr-tb;text-anchor:start;baseline-shift:baseline;color:#000000;fill:#0000ff;fill-opacity:1;stroke:none;stroke-width:1.5;marker:none;visibility:visible;display:inline;overflow:visible;enable-background:accumulate;font-family:Sans;-inkscape-font-specification:Sans"
         d="m 22.938725,465.95438 a 0.58004654,0.58004654 0 1 0 0.120192,1.15385 l 3.846153,0 a 0.57698069,0.57698069 0 1 0 0,-1.15385 l -3.846153,0 a 0.57698069,0.57698069 0 0 0 -0.120192,0 z"
         id="path3898"
         inkscape:connector-curvature="0" />
    </g>
    <g
       id="linear-asc"
       inkscape:label="#g4041"
       inkscape:export-xdpi="90"
       inkscape:export-ydpi="90"
       transform="translate(10,0)">
      <use
         height="600"
         width="600"
         transform="translate(20,0)"
         id="use3785"
         xlink:href="#rect3755"
         y="0"
         x="0" />
      <use
         height="600"
         width="600"
         transform="translate(20,0)"
         id="use3808"
         xlink:href="#path3804"
         y="0"
         x="0" />
      <path
         style="fill:none;stroke:#000000;stroke-width:1;stroke-linecap:round;stroke-linejoin:miter;stroke-opacity:1"
         d="M 26.571864,470.79032 43.428136,453.93404"
         id="path3828"
         inkscape:connector-curvature="0" />
      <path
         inkscape:connector-curvature="0"
         id="path3892"
         d="m 45.020237,454.90667 a 0.57698069,0.57698069 0 0 0 -0.120193,0.024 0.57698069,0.57698069 0 0 0 -0.45673,0.57692 l 0,1.34615 -1.346155,0 a 0.57698069,0.57698069 0 0 0 -0.120192,0 0.58004654,0.58004654 0 1 0 0.120192,1.15385 l 1.346155,0 0,1.34615 a 0.57698069,0.57698069 0 1 0 1.153845,0 l 0,-1.34615 1.346154,0 a 0.57698069,0.57698069 0 1 0 0,-1.15385 l -1.346154,0 0,-1.34615 a 0.57698069,0.57698069 0 0 0 -0.576922,-0.60096 z"
         style="font-size:medium;font-style:normal;font-variant:normal;font-weight:normal;font-stretch:normal;text-indent:0;text-align:start;text-decoration:none;line-height:normal;letter-spacing:normal;word-spacing:normal;text-transform:none;direction:ltr;block-progression:tb;writing-mode:lr-tb;text-anchor:start;baseline-shift:baseline;color:#000000;fill:#d40000;fill-opacity:1;stroke:none;stroke-width:1.5;marker:none;visibility:visible;display:inline;overflow:visible;enable-background:accumulate;font-family:Sans;-inkscape-font-specification:Sans" />
      <path
         inkscape:connector-curvature="0"
         id="path3900"
         d="m 22.838162,465.87058 a 0.58004654,0.58004654 0 1 0 0.120192,1.15385 l 3.846153,0 a 0.57698069,0.57698069 0 1 0 0,-1.15385 l -3.846153,0 a 0.57698069,0.57698069 0 0 0 -0.120192,0 z"
         style="font-size:medium;font-style:normal;font-variant:normal;font-weight:normal;font-stretch:normal;text-indent:0;text-align:start;text-decoration:none;line-height:normal;letter-spacing:normal;word-spacing:normal;text-transform:none;direction:ltr;block-progression:tb;writing-mode:lr-tb;text-anchor:start;baseline-shift:baseline;color:#000000;fill:#0000ff;fill-opacity:1;stroke:none;stroke-width:1.5;marker:none;visibility:visible;display:inline;overflow:visible;enable-background:accumulate;font-family:Sans;-inkscape-font-specification:Sans" />
    </g>
    <g
       id="parab-down-0"
       inkscape:label="#g4054"
       inkscape:export-xdpi="90"
       inkscape:export-ydpi="90"
       transform="translate(30,0)">
      <use
         height="600"
         width="600"
         transform="translate(60,0)"
         id="use3789"
         xlink:href="#rect3755"
         y="0"
         x="0" />
      <use
         height="600"
         width="600"
         transform="translate(60,-5.00559)"
         id="use3812"
         xlink:href="#path3804"
         y="0"
         x="0" />
      <path
         style="fill:none;stroke:#000000;stroke-width:1;stroke-linecap:round;stroke-linejoin:miter;stroke-opacity:1"
         d="m 66.571864,470.45157 c 0,0 2.601998,-10 8.428136,-10 5.826138,0 8.428136,10 8.428136,10"
         id="path3832"
         inkscape:connector-curvature="0"
         sodipodi:nodetypes="czc" />
      <path
         style="font-size:medium;font-style:normal;font-variant:normal;font-weight:normal;font-stretch:normal;text-indent:0;text-align:start;text-decoration:none;line-height:normal;letter-spacing:normal;word-spacing:normal;text-transform:none;direction:ltr;block-progression:tb;writing-mode:lr-tb;text-anchor:start;baseline-shift:baseline;color:#000000;fill:#0000ff;fill-opacity:1;stroke:none;stroke-width:1.5;marker:none;visibility:visible;display:inline;overflow:visible;enable-background:accumulate;font-family:Sans;-inkscape-font-specification:Sans"
         d="m 72.933137,465.95438 a 0.58004654,0.58004654 0 1 0 0.120192,1.15385 l 3.846153,0 a 0.57698069,0.57698069 0 1 0 0,-1.15385 l -3.846153,0 a 0.57698069,0.57698069 0 0 0 -0.120192,0 z"
         id="path3902"
         inkscape:connector-curvature="0" />
    </g>
    <g
       id="parab-up-1"
       inkscape:label="#g4060"
       inkscape:export-xdpi="90"
       inkscape:export-ydpi="90"
       transform="translate(40,0)">
      <use
         x="0"
         y="0"
         xlink:href="#rect3755"
         id="use3791"
         transform="translate(80,0)"
         width="600"
         height="600" />
      <use
         x="0"
         y="0"
         xlink:href="#path3804"
         id="use3814"
         transform="translate(80,2)"
         width="600"
         height="600" />
      <path
         style="fill:none;stroke:#000000;stroke-width:1;stroke-linecap:round;stroke-linejoin:miter;stroke-opacity:1"
         d="m 86.571864,454.28397 c 0,0 2.601998,10 8.428136,10 5.82614,0 8.42814,-10 8.42814,-10"
         id="path3838"
         inkscape:connector-curvature="0"
         sodipodi:nodetypes="czc" />
      <path
         inkscape:connector-curvature="0"
         id="path3896"
         d="m 85.042589,457.40947 a 0.57698069,0.57698069 0 0 0 -0.120193,0.024 0.57698069,0.57698069 0 0 0 -0.45673,0.57692 l 0,1.34615 -1.346155,0 a 0.57698069,0.57698069 0 0 0 -0.120192,0 0.58004654,0.58004654 0 1 0 0.120192,1.15385 l 1.346155,0 0,1.34615 a 0.57698069,0.57698069 0 1 0 1.153845,0 l 0,-1.34615 1.346154,0 a 0.57698069,0.57698069 0 1 0 0,-1.15385 l -1.346154,0 0,-1.34615 a 0.57698069,0.57698069 0 0 0 -0.576922,-0.60096 z"
         style="font-size:medium;font-style:normal;font-variant:normal;font-weight:normal;font-stretch:normal;text-indent:0;text-align:start;text-decoration:none;line-height:normal;letter-spacing:normal;word-spacing:normal;text-transform:none;direction:ltr;block-progression:tb;writing-mode:lr-tb;text-anchor:start;baseline-shift:baseline;color:#000000;fill:#d40000;fill-opacity:1;stroke:none;stroke-width:1.5;marker:none;visibility:visible;display:inline;overflow:visible;enable-background:accumulate;font-family:Sans;-inkscape-font-specification:Sans" />
      <path
         style="font-size:medium;font-style:normal;font-variant:normal;font-weight:normal;font-stretch:normal;text-indent:0;text-align:start;text-decoration:none;line-height:normal;letter-spacing:normal;word-spacing:normal;text-transform:none;direction:ltr;block-progression:tb;writing-mode:lr-tb;text-anchor:start;baseline-shift:baseline;color:#000000;fill:#d40000;fill-opacity:1;stroke:none;stroke-width:1.5;marker:none;visibility:visible;display:inline;overflow:visible;enable-background:accumulate;font-family:Sans;-inkscape-font-specification:Sans"
         d="m 105.11522,457.40947 a 0.57698069,0.57698069 0 0 0 -0.1202,0.024 0.57698069,0.57698069 0 0 0 -0.45673,0.57692 l 0,1.34615 -1.34615,0 a 0.57698069,0.57698069 0 0 0 -0.12019,0 0.58004643,0.58004643 0 1 0 0.12019,1.15385 l 1.34615,0 0,1.34615 a 0.57698069,0.57698069 0 1 0 1.15385,0 l 0,-1.34615 1.34615,0 a 0.57698069,0.57698069 0 1 0 0,-1.15385 l -1.34615,0 0,-1.34615 a 0.57698069,0.57698069 0 0 0 -0.57692,-0.60096 z"
         id="path3904"
         inkscape:connector-curvature="0" />
    </g>
    <g
       id="parab-down-1"
       inkscape:label="#g4067"
       inkscape:export-xdpi="90"
       inkscape:export-ydpi="90"
       transform="translate(50,0)">
      <use
         height="600"
         width="600"
         transform="translate(100,0)"
         id="use3793"
         xlink:href="#rect3755"
         y="0"
         x="0" />
      <use
         height="600"
         width="600"
         transform="translate(100,-2)"
         id="use3816"
         xlink:href="#path3804"
         y="0"
         x="0" />
      <path
         sodipodi:nodetypes="czc"
         inkscape:connector-curvature="0"
         id="path3840"
         d="m 106.57186,470.45157 c 0,0 2.602,-10 8.42814,-10 5.82614,0 8.42814,10 8.42814,10"
         style="fill:none;stroke:#000000;stroke-width:1;stroke-linecap:round;stroke-linejoin:miter;stroke-opacity:1" />
      <path
         inkscape:connector-curvature="0"
         id="path3906"
         d="m 102.94435,464.94878 a 0.58004643,0.58004643 0 0 0 0.12019,1.15385 l 3.84616,0 a 0.57698069,0.57698069 0 1 0 0,-1.15385 l -3.84616,0 a 0.57698069,0.57698069 0 0 0 -0.12019,0 z"
         style="font-size:medium;font-style:normal;font-variant:normal;font-weight:normal;font-stretch:normal;text-indent:0;text-align:start;text-decoration:none;line-height:normal;letter-spacing:normal;word-spacing:normal;text-transform:none;direction:ltr;block-progression:tb;writing-mode:lr-tb;text-anchor:start;baseline-shift:baseline;color:#000000;fill:#0000ff;fill-opacity:1;stroke:none;stroke-width:1.5;marker:none;visibility:visible;display:inline;overflow:visible;enable-background:accumulate;font-family:Sans;-inkscape-font-specification:Sans" />
      <path
         style="font-size:medium;font-style:normal;font-variant:normal;font-weight:normal;font-stretch:normal;text-indent:0;text-align:start;text-decoration:none;line-height:normal;letter-spacing:normal;word-spacing:normal;text-transform:none;direction:ltr;block-progression:tb;writing-mode:lr-tb;text-anchor:start;baseline-shift:baseline;color:#000000;fill:#0000ff;fill-opacity:1;stroke:none;stroke-width:1.5;marker:none;visibility:visible;display:inline;overflow:visible;enable-background:accumulate;font-family:Sans;-inkscape-font-specification:Sans"
         d="m 122.93315,464.94878 a 0.58004643,0.58004643 0 0 0 0.12019,1.15385 l 3.84616,0 a 0.57698069,0.57698069 0 1 0 0,-1.15385 l -3.84616,0 a 0.57698069,0.57698069 0 0 0 -0.12019,0 z"
         id="path3908"
         inkscape:connector-curvature="0" />
    </g>
    <g
       id="parab-up-2"
       inkscape:label="#g4074"
       inkscape:export-xdpi="90"
       inkscape:export-ydpi="90"
       transform="translate(60,0)">
      <use
         x="0"
         y="0"
         xlink:href="#rect3755"
         id="use3795"
         transform="translate(120,0)"
         width="600"
         height="600" />
      <use
         x="0"
         y="0"
         xlink:href="#path3804"
         id="use3818"
         transform="translate(120,0)"
         width="600"
         height="600" />
      <path
         style="fill:none;stroke:#000000;stroke-width:1;stroke-linecap:round;stroke-linejoin:miter;stroke-opacity:1"
         d="m 126.57186,454.28397 c 0,0 2.602,16 8.42814,16 5.82614,0 8.42814,-16 8.42814,-16"
         id="path3834"
         inkscape:connector-curvature="0"
         sodipodi:nodetypes="czc" />
      <path
         inkscape:connector-curvature="0"
         id="path3910"
         d="m 132.87175,465.0214 a 0.58004475,0.58004475 0 0 0 0.12019,1.15384 l 3.84616,0 a 0.57698069,0.57698069 0 1 0 0,-1.15384 l -3.84616,0 a 0.57698069,0.57698069 0 0 0 -0.12019,0 z"
         style="font-size:medium;font-style:normal;font-variant:normal;font-weight:normal;font-stretch:normal;text-indent:0;text-align:start;text-decoration:none;line-height:normal;letter-spacing:normal;word-spacing:normal;text-transform:none;direction:ltr;block-progression:tb;writing-mode:lr-tb;text-anchor:start;baseline-shift:baseline;color:#000000;fill:#0000ff;fill-opacity:1;stroke:none;stroke-width:1.5;marker:none;visibility:visible;display:inline;overflow:visible;enable-background:accumulate;font-family:Sans;-inkscape-font-specification:Sans" />
      <path
         style="font-size:medium;font-style:normal;font-variant:normal;font-weight:normal;font-stretch:normal;text-indent:0;text-align:start;text-decoration:none;line-height:normal;letter-spacing:normal;word-spacing:normal;text-transform:none;direction:ltr;block-progression:tb;writing-mode:lr-tb;text-anchor:start;baseline-shift:baseline;color:#000000;fill:#d40000;fill-opacity:1;stroke:none;stroke-width:1.5;marker:none;visibility:visible;display:inline;overflow:visible;enable-background:accumulate;font-family:Sans;-inkscape-font-specification:Sans"
         d="m 123.45042,454.91786 a 0.57698069,0.57698069 0 0 0 -0.1202,0.024 0.57698069,0.57698069 0 0 0 -0.45673,0.57693 l 0,1.34615 -1.34615,0 a 0.57698069,0.57698069 0 0 0 -0.12019,0 0.58004643,0.58004643 0 1 0 0.12019,1.15385 l 1.34615,0 0,1.34615 a 0.57698069,0.57698069 0 1 0 1.15385,0 l 0,-1.34615 1.34615,0 a 0.57698069,0.57698069 0 1 0 0,-1.15385 l -1.34615,0 0,-1.34615 a 0.57698069,0.57698069 0 0 0 -0.57692,-0.60096 z"
         id="path3912"
         inkscape:connector-curvature="0" />
      <path
         inkscape:connector-curvature="0"
         id="path3914"
         d="m 146.58462,454.91787 a 0.57698069,0.57698069 0 0 0 -0.1202,0.024 0.57698069,0.57698069 0 0 0 -0.45673,0.57692 l 0,1.34615 -1.34615,0 a 0.57698069,0.57698069 0 0 0 -0.12019,0 0.58004643,0.58004643 0 0 0 0.12019,1.15385 l 1.34615,0 0,1.34615 a 0.57698069,0.57698069 0 1 0 1.15385,0 l 0,-1.34615 1.34615,0 a 0.57698069,0.57698069 0 1 0 0,-1.15385 l -1.34615,0 0,-1.34615 a 0.57698069,0.57698069 0 0 0 -0.57692,-0.60096 z"
         style="font-size:medium;font-style:normal;font-variant:normal;font-weight:normal;font-stretch:normal;text-indent:0;text-align:start;text-decoration:none;line-height:normal;letter-spacing:normal;word-spacing:normal;text-transform:none;direction:ltr;block-progression:tb;writing-mode:lr-tb;text-anchor:start;baseline-shift:baseline;color:#000000;fill:#d40000;fill-opacity:1;stroke:none;stroke-width:1.5;marker:none;visibility:visible;display:inline;overflow:visible;enable-background:accumulate;font-family:Sans;-inkscape-font-specification:Sans" />
    </g>
    <g
       id="parab-down-2"
       inkscape:label="#g4082"
       inkscape:export-xdpi="90"
       inkscape:export-ydpi="90"
       transform="translate(70,0)">
      <use
         height="600"
         width="600"
         transform="translate(140,0)"
         id="use3797"
         xlink:href="#rect3755"
         y="0"
         x="0" />
      <use
         height="600"
         width="600"
         transform="translate(140,0)"
         id="use3820"
         xlink:href="#path3804"
         y="0"
         x="0" />
      <path
         sodipodi:nodetypes="czc"
         inkscape:connector-curvature="0"
         id="path3836"
         d="m 146.57186,470.28397 c 0,0 2.602,-16 8.42814,-16 5.82614,0 8.42814,16 8.42814,16"
         style="fill:none;stroke:#000000;stroke-width:1;stroke-linecap:round;stroke-linejoin:miter;stroke-opacity:1" />
      <path
         style="font-size:medium;font-style:normal;font-variant:normal;font-weight:normal;font-stretch:normal;text-indent:0;text-align:start;text-decoration:none;line-height:normal;letter-spacing:normal;word-spacing:normal;text-transform:none;direction:ltr;block-progression:tb;writing-mode:lr-tb;text-anchor:start;baseline-shift:baseline;color:#000000;fill:#d40000;fill-opacity:1;stroke:none;stroke-width:1.5;marker:none;visibility:visible;display:inline;overflow:visible;enable-background:accumulate;font-family:Sans;-inkscape-font-specification:Sans"
         d="m 154.98122,456.16367 a 0.57698069,0.57698069 0 0 0 -0.1202,0.024 0.57698069,0.57698069 0 0 0 -0.45673,0.57693 l 0,1.34615 -1.34615,0 a 0.57698069,0.57698069 0 0 0 -0.12019,0 0.58004643,0.58004643 0 1 0 0.12019,1.15385 l 1.34615,0 0,1.34615 a 0.57698069,0.57698069 0 1 0 1.15385,0 l 0,-1.34615 1.34615,0 a 0.57698069,0.57698069 0 1 0 0,-1.15385 l -1.34615,0 0,-1.34615 a 0.57698069,0.57698069 0 0 0 -0.57692,-0.60096 z"
         id="path3916"
         inkscape:connector-curvature="0" />
      <path
         style="font-size:medium;font-style:normal;font-variant:normal;font-weight:normal;font-stretch:normal;text-indent:0;text-align:start;text-decoration:none;line-height:normal;letter-spacing:normal;word-spacing:normal;text-transform:none;direction:ltr;block-progression:tb;writing-mode:lr-tb;text-anchor:start;baseline-shift:baseline;color:#000000;fill:#0000ff;fill-opacity:1;stroke:none;stroke-width:1.5;marker:none;visibility:visible;display:inline;overflow:visible;enable-background:accumulate;font-family:Sans;-inkscape-font-specification:Sans"
         d="m 141.27955,466.75882 a 0.58004475,0.58004475 0 0 0 0.12019,1.15384 l 3.84616,0 a 0.57698069,0.57698069 0 1 0 0,-1.15384 l -3.84616,0 a 0.57698069,0.57698069 0 0 0 -0.12019,0 z"
         id="path3918"
         inkscape:connector-curvature="0" />
      <path
         inkscape:connector-curvature="0"
         id="path3920"
         d="m 164.69295,466.84262 a 0.58004475,0.58004475 0 0 0 0.12019,1.15384 l 3.84616,0 a 0.57698069,0.57698069 0 1 0 0,-1.15384 l -3.84616,0 a 0.57698069,0.57698069 0 0 0 -0.12019,0 z"
         style="font-size:medium;font-style:normal;font-variant:normal;font-weight:normal;font-stretch:normal;text-indent:0;text-align:start;text-decoration:none;line-height:normal;letter-spacing:normal;word-spacing:normal;text-transform:none;direction:ltr;block-progression:tb;writing-mode:lr-tb;text-anchor:start;baseline-shift:baseline;color:#000000;fill:#0000ff;fill-opacity:1;stroke:none;stroke-width:1.5;marker:none;visibility:visible;display:inline;overflow:visible;enable-background:accumulate;font-family:Sans;-inkscape-font-specification:Sans" />
    </g>
  </g>
</svg>
